# xmcd CD database file
#
# Track frame offsets:
#	150
#	13214
#	34559
#	54250
#	76702
#	95635
#	112641
#	134889
#	152500
#	173171
#
# Disc length: 2513 seconds
#
# Revision: 0
# Processed by: cddbd v1.4PL0 Copyright (c) Steve Scherf et al.
# Submitted via: CDex 1.50
#
DISCID=6f09cf0a
DTITLE=Duke Robillard - Exalted Lover
DYEAR=2003
DGENRE=Blues
TTITLE0=Real Live Wire
TTITLE1=Deep Inside
TTITLE2=Love Made a Liar Out of Me
TTITLE3=Exalted Lover
TTITLE4=Tore Up
TTITLE5=I'll Never Be Free
TTITLE6=Down Home Country Girl
TTITLE7=How Long Has It Been
TTITLE8=Double X Daddy
TTITLE9=Travelin' Mood
EXTD=YEAR: 2003
EXTT0=
EXTT1=
EXTT2=
EXTT3=
EXTT4=
EXTT5=
EXTT6=
EXTT7=
EXTT8=
EXTT9=
PLAYORDER=
